<?xml version="1.0" encoding="UTF-8" standalone="no"?>
<!-- Created with Inkscape (http://www.inkscape.org/) -->

<svg
   xmlns:dc="http://purl.org/dc/elements/1.1/"
   xmlns:cc="http://creativecommons.org/ns#"
   xmlns:rdf="http://www.w3.org/1999/02/22-rdf-syntax-ns#"
   xmlns:svg="http://www.w3.org/2000/svg"
   xmlns="http://www.w3.org/2000/svg"
   xmlns:sodipodi="http://sodipodi.sourceforge.net/DTD/sodipodi-0.dtd"
   xmlns:inkscape="http://www.inkscape.org/namespaces/inkscape"
   width="98.751999"
   height="62.750999"
   viewBox="0 0 98.752 62.751"
   id="svg7923"
   version="1.1"
   inkscape:version="0.91 r13725"
   sodipodi:docname="raygun.svg">
  <defs
     id="defs7925" />
  <sodipodi:namedview
     id="base"
     pagecolor="#ffffff"
     bordercolor="#666666"
     borderopacity="1.0"
     inkscape:pageopacity="0.0"
     inkscape:pageshadow="2"
     inkscape:zoom="3.959798"
     inkscape:cx="98.740643"
     inkscape:cy="41.150124"
     inkscape:document-units="px"
     inkscape:current-layer="layer1"
     showgrid="false"
     units="px"
     inkscape:window-width="1536"
     inkscape:window-height="803"
     inkscape:window-x="-8"
     inkscape:window-y="-8"
     inkscape:window-maximized="1" />
  <metadata
     id="metadata7928">
    <rdf:RDF>
      <cc:Work
         rdf:about="">
        <dc:format>image/svg+xml</dc:format>
        <dc:type
           rdf:resource="http://purl.org/dc/dcmitype/StillImage" />
        <dc:title></dc:title>
      </cc:Work>
    </rdf:RDF>
  </metadata>
  <g
     inkscape:label="Layer 1"
     inkscape:groupmode="layer"
     id="layer1"
     transform="translate(0,-989.61116)">
    <path
       style="fill:white"
       d="m 11.253727,989.6294 c -0.2482,0.0521 -0.41105,0.21704 -0.6582,0.53125 -0.29794,0.37875 -0.7782494,1.34082 -1.0683594,2.13672 -0.29013,0.7959 -0.7173,1.87265 -0.94922,2.39258 -0.23194,0.51996 -0.42188,1.08953 -0.42188,1.26757 0,0.17805 -0.35953,1.19987 -0.79882,2.26954 -0.6549,1.59471 -0.99248,2.03554 -1.875,2.45314 -1.91608,0.9065 -3.29283,1.6251 -4.51558004,3.8315 -1.22276,2.2063 -1.52785,9.5338 0.53203004,11.9195 2.05988,2.3857 4.20569,3.5555 5.21401,3.5595 0.46084,0 0.9869,0.2572 1.22266,0.5938 0.22734,0.3245 0.93923,1.0067 1.58203,1.5176 1.9326994,1.5359 2.4316194,3.3802 1.9042994,7.041 -0.81716,5.481 -3.8632094,10.3933 -6.1757794,13.9472 -1.13928,1.7456 -0.4788,4.2256 1.6289,6.1211 2.35274,2.1159 9.6713794,3.7793 12.8457094,2.9199 2.38662,-0.6461 3.75431,-3.0025 5.32617,-9.1757 l 0.95703,-3.7618 1.44531,0 c 0.90382,0 1.91952,-0.3169 3.44113,-0.8392 1.52162,-0.5224 2.92317,-1.8098 4.33426,-3.065 2.16926,-1.955 3.66434,-5.2055 3.99805,-7.6465 0.12891,-0.99 0.20377,-2.0238 0.16797,-2.2989 -0.0358,-0.275 0.17781,-0.5684 0.47461,-0.6504 0.88875,-0.2456 4.89511,-1.0321 7.14062,-1.4023 1.155,-0.1904 2.97829,-0.5281 4.05079,-0.75 1.07249,-0.2219 2.62421,-0.4884 3.44921,-0.5937 1.47734,-0.1886 1.86271,-0.2861 4.75977,-1.1875 2.29194,-0.7131 4.53556,-2.3594 5.26172,-3.8594 0.3454,-0.7135 0.6289,-1.6416 0.6289,-2.0645 0,-0.7287 0.12032,-0.7885 2.32422,-1.1211 2.77921,-0.4194 9.14383,-0.8628 14.92578,-1.041 2.31,-0.071 4.335,-0.1579 4.5,-0.1914 1.39799,-0.2844 2.79372,0.087 3.88672,1.0313 1.53815,1.3291 3.09577,1.8019 4.60157,1.3964 1.22148,-0.3288 2.53037,-1.4986 3.04101,-2.7168 0.17287,-0.4125 0.27177,-0.7153 0.31585,-2.6024 0.0441,-1.887 -2.48548,-4.7456 -5.28906,-4.0884 -2.80358,0.6572 -3.2804,1.5943 -3.79632,2.4116 -0.29653,0.4696 -10.03954,0.5277 -15.06055,0.09 -1.815,-0.1583 -4.52839,-0.3574 -6.02929,-0.4415 -1.50089,-0.084 -2.93381,-0.2315 -3.18555,-0.3281 -0.26794,-0.1028 -0.53185,-0.7172 -0.63672,-1.4824 -0.0985,-0.7189 -0.50529,-2.028 -0.9043,-2.9082 -0.88043,-1.9423 -2.38345,-5.90701 -2.9375,-7.75 -0.35781,-1.19025 -0.51841,-1.3607 -1.34961,-1.4414 -1.0757,-0.10453 -1.55351,0.43027 -2.93359,3.29101 l -0.82031,1.70117 -1.70117,-0.58789 c -0.9359,-0.3237 -4.87446,-1.46231 -8.75196,-2.52929 -6.45321,-1.77572 -7.46902,-1.97155 -12,-2.32813 -2.7225,-0.2143 -6.70461,-0.34953 -8.84961,-0.29883 -2.91274,0.0689 -4.12862,-0.0145 -4.80078,-0.33398 -1.46592,-0.69675 -3.07717,-1.37305 -3.27343,-1.37305 -0.10061,0 -0.75562,-0.24925 -1.45508,-0.55468 -0.69945,-0.3054 -1.84844,-0.69333 -2.55469,-0.86133 -0.58586,-0.13937 -0.91977,-0.20053 -1.16797,-0.14844 z m 0.74219,2.40234 c 0.45298,0.0592 1.40711,0.31519 2.45898,0.67188 1.61165,0.54648 2.24795,0.86895 1.72852,0.87695 -0.82835,0.0128 -4.55604,1.359 -5.25195,1.89649 -0.26451,0.2043 -0.375,0.14954 -0.375,-0.18946 0,-0.50634 0.86272,-2.90043 1.16992,-3.24609 0.0247,-0.0278 0.11853,-0.0295 0.26953,-0.01 z m 13.03515,2.54688 c 3.37289,-0.0297 10.72827,0.43111 12.22461,0.8164 0.5775,0.1487 2.6025,0.63161 4.5,1.07227 1.8975,0.4407 4.39579,1.06979 5.55079,1.39844 1.155,0.32865 2.23343,0.61843 2.39843,0.64453 0.165,0.0261 0.70617,0.20302 1.20117,0.39258 1.05994,0.40596 4.90063,1.61216 5.54883,1.74216 0.2475,0.05 1.03558,0.3243 1.75,0.6113 1.09772,0.441 1.26739,0.6197 1.10157,1.1543 -0.84045,2.7101 -1.08755,4.798 -0.98243,8.2637 0.0563,1.7568 0.37907,3.7473 1.11524,5.9043 0.33855,0.7654 0.61719,1.4142 0.61719,1.4414 -10e-6,0.1678 -10.08914,2.8703 -11.38868,3.0508 -0.57051,0.079 -1.97029,0.3557 -3.11132,0.6152 -1.14102,0.2596 -2.42984,0.5103 -2.86329,0.5567 -0.43345,0.046 -1.66578,0.1738 -2.73828,0.2832 -1.0725,0.1094 -2.48844,0.2713 -3.14843,0.3594 -2.04508,0.2726 -11.22535,0.4798 -12.30469,0.2773 -0.98655,-0.1851 -1.0105,-0.2214 -0.66016,-1.0059 1.86095,-4.1667 7.23845,-9.9684 11.87305,-12.8125 0.26887,-0.165 0.82701,-0.5183 1.24023,-0.7851 1.50538,-0.9721 6.20626,-2.623 8.40039,-2.9492 2.96948,-0.4416 3.30078,-0.5595 3.30078,-1.1856 0,-0.7847 -0.27277,-0.9267 -1.14843,-0.5937 -0.43259,0.1644 -1.73534,0.3592 -2.89453,0.4316 -1.1592,0.072 -2.44493,0.1937 -2.85743,0.2695 -0.4125,0.076 -1.89828,0.2214 -3.30078,0.3243 -3.57386,0.2621 -10.0826,1.7464 -14.39843,3.2832 -3.94153,1.4035 -10.4458,5.8904 -13.18555,9.0957 l -1.1757794,1.375 -0.59571,-0.7325 c -1.74783,-2.5354 -2.23074,-5.7239 -2.11716,-8.4296 0.13649,-3.9272 0.79224,-6.2474 2.88476,-9.4063 0.8956694,-1.12754 3.2584294,-2.80977 4.7382794,-3.37304 2.35198,-0.89526 6.40438,-1.79256 9.25196,-2.04687 0.29055,-0.026 0.69198,-0.0387 1.17382,-0.043 z m 34.39454,1.56055 c 0.0909,0.017 0.16209,0.18287 0.26757,0.45507 0.15982,0.4125 0.51025,1.27323 0.77735,1.91211 0.26711,0.63891 0.48437,1.40645 0.48437,1.70705 0,0.5186 -0.0716,0.5144 -1.42383,-0.072 -0.78375,-0.3401 -1.51525,-0.70228 -1.625,-0.80666 -0.10977,-0.1044 0.18186,-0.93235 0.64844,-1.83985 0.51316,-0.9981 0.71953,-1.38385 0.8711,-1.35546 z m -34.07227,1.67187 c -0.44587,-0.004 -0.92999,0.0943 -1.49414,0.29102 -0.67716,0.23607 -1.08286,0.73607 -1.7168,2.11714 -1.22339,2.6653 -1.30662,3.6066 -0.40625,4.5782 1.19215,1.2863 2.34577,1.5486 3.7168,0.8457 1.17901,-0.6046 2.16258,-1.534 2.75195,-2.5996 0.18253,-0.33 0.3368,-1.2236 0.3418,-1.9864 0.008,-1.23083 -0.11501,-1.49153 -1.08984,-2.32418 -0.72445,-0.61882 -1.36041,-0.915 -2.10352,-0.92188 z m 7.875,0.30664 c -0.46984,0.043 -0.90431,0.224 -1.22656,0.58008 -0.33086,0.36562 -0.60029,1.23084 -0.67969,2.18754 -0.15641,1.8861 0.21271,2.3225 2.10938,2.5039 1.31415,0.1257 1.86537,-0.1469 2.53124,-1.252 0.19656,-0.3262 0.36501,-1.0194 0.375,-1.541 0.0275,-1.4791 -1.69984,-2.60749 -3.10937,-2.47852 z m 7.86719,0.46875 c -0.84073,-0.0516 -1.65221,0.34092 -1.85352,1.0918 -0.61974,2.31167 0.28394,3.70687 2.1582,3.33207 1.02995,-0.206 1.41325,-0.5497 1.63868,-1.4668 0.30193,-1.2284 0.19837,-1.69629 -0.52344,-2.36527 -0.40028,-0.37096 -0.91549,-0.56081 -1.41992,-0.5918 z m -15.25586,0.55859 c 0.21611,0.0353 0.4112,0.21786 0.76953,0.57618 0.41035,0.4104 0.74609,1.0582 0.74609,1.4414 0,1.2879 -2.53545,3.4209 -3.78515,3.1836 -0.42247,-0.08 -0.58539,-0.4084 -0.64649,-1.3047 -0.0997,-1.4617 0.72201,-2.9207 2.02344,-3.59374 0.4405,-0.22779 0.67647,-0.33805 0.89258,-0.30274 z m 20.96875,0.14844 c -1.49747,0 -2.04105,2.30254 -0.74414,3.15234 0.89509,0.5865 2.19169,0.1701 2.56054,-0.8223 0.46901,-1.2617 -0.36402,-2.33004 -1.8164,-2.33004 z m -30.3418,0.0274 c -0.65219,-0.0481 -1.37509,0.12074 -2.22656,0.50195 -1.75511,0.78579 -2.7083,2.00409 -3.43359,4.39059 -0.8380894,2.7577 -0.8242994,3.6863 0.0684,5.041 1.68383,2.5556 4.18018,2.2827 6.59375,-0.7207 0.64124,-0.7979 1.23227,-2.0275 1.55664,-3.2382 0.70348,-2.6258 0.48647,-4.1084 -0.75781,-5.1758 -0.56629,-0.48576 -1.14859,-0.75075 -1.80078,-0.79884 z m 17.43359,0.125 c 0.21171,-0.0155 0.43647,0.0316 0.66211,0.15234 0.3262,0.17458 0.5789,0.4132 0.5625,0.5312 -0.30332,2.1752 -2.36914,2.9213 -2.36914,0.8555 0,-0.8816 0.50942,-1.49257 1.14453,-1.53904 z m 7.04883,0.49609 c 0.14002,0.009 0.31316,0.0413 0.48438,0.0956 l 0,-0 c 0.77163,0.245 0.79558,0.8071 0.0645,1.4688 -0.44392,0.4018 -0.61865,0.426 -0.86133,0.1211 -0.29508,-0.3708 -0.28133,-1.332 0.0234,-1.63672 0.0412,-0.0412 0.14905,-0.0555 0.28906,-0.0469 z m 6.13704,0.46685 c 0.0847,-0 0.41733,0.1783 0.50676,0.2589 0.18625,0.168 -0.009,0.7743 -0.38926,0.8847 -0.52074,0.1513 -0.97907,-0.5314 -0.59402,-0.9164 0.10773,-0.1077 0.39181,-0.2246 0.47652,-0.2272 z m -30.90266,0.3847 c 0.30667,0 0.80049,0.1772 1.09765,0.3945 1.35882,0.9936 0.42128,5.1656 -1.58007,7.0313 -2.18607,2.0379 -3.64453,1.214 -3.64453,-2.0567 0.346,-2.0204 1.71177,-5.2867 4.12695,-5.3691 z m -11.4199194,2.6016 c 0.14423,0.028 0.004,0.6939 -0.39453,2.25 -0.58637,2.2881 -0.40373,5.4326 0.48632,8.3496 0.32726,1.0725 0.59666,2.1239 0.59766,2.3379 0.004,0.7198 -1.40671,-0.6191 -2.44141,-2.3164 -0.77748,-1.456 -0.81362,-1.6887 -0.95507,-4.2539 -0.13255,-2.4039 0.4677,-3.981 1.30859,-4.7676 0.0882,-0.082 0.46062,-0.5396 0.82617,-1.0156 0.2976,-0.3876 0.48573,-0.6008 0.57227,-0.584 z m 33.1035094,2.5918 c 0.11167,-0 0.1834,0 0.20313,0.022 0.30657,0.3065 -2.35021,1.3847 -3.41211,1.3847 -1.62111,0 -0.89491,-0.5656 1.4082,-1.0976 0.76789,-0.1775 1.46578,-0.2945 1.80078,-0.3086 z m -6.71094,1.8476 c 0.42139,-0.032 0.79804,0.025 1.29102,0.1582 0.66434,0.1789 1.20898,0.4338 1.20898,0.5664 0,0.1327 -0.45453,0.4842 -1.00976,0.7832 -0.9194,0.4952 -1.17346,0.5086 -2.84961,0.1368 -1.01227,-0.2246 -1.84084,-0.4826 -1.83984,-0.5723 0.001,-0.09 0.74062,-0.4049 1.64257,-0.7012 0.66931,-0.2199 1.13526,-0.3395 1.55664,-0.3711 z m 62.93415,-0.419 c 0.87452,0.047 2.22075,1.0345 2.55971,1.943 0.33896,0.9086 -0.69126,3.674 -2.40541,3.3996 -1.71414,-0.2744 -3.11727,-1.9005 -2.91126,-3.0558 0.206,-1.1553 1.88245,-2.3336 2.75696,-2.2868 z m -30.07086,1.3409 c 0.72362,0.011 2.27565,0.1234 4.00195,0.2969 2.17609,0.2186 7.21227,0.3836 10.6582,0.5486 4.81291,0.2304 8.3217,0.1949 9.41546,0.1534 0.26948,-0.01 0.7378,-0.1199 0.90496,0.036 0.31898,0.2972 0.20833,0.9772 0.20833,1.0614 0,0.2197 -7.81586,0.1397 -11.40961,0.3896 -0.90281,0.063 -8.07657,0.4652 -8.68554,0.6196 -0.60898,0.1545 -2.1529,0.3716 -3.43164,0.4825 l -2.32618,0.2011 0,-1.8086 c 0,-0.9943 0.10821,-1.8734 0.24024,-1.955 0.033,-0.02 0.18262,-0.029 0.42383,-0.025 z m -1.99615,2.7142 c 0.0116,0.5444 0.0348,1.4439 0.2813,1.9206 0.38099,0.7413 0.37365,1.3586 0.3711,2.1543 -0.0813,0.4845 -0.32276,0.9927 -0.49805,1.414 -0.17396,0.2815 -0.2831,0.2158 -0.40235,-0.2402 -0.1174,-0.646 -0.57332,-1.5938 -0.6402,-2.1526 -0.1486,-0.7146 -0.37388,-3.0138 -0.36097,-4.5433 0.009,-1.087 0.13236,-2.6984 0.1358,-3.1821 0.003,-0.4836 0.44309,-1.773 0.63178,-2.6675 l 0.1582,-0.75 0.41407,0.75 c 0.5382,0.9748 1.41766,2.5132 0.7356,3.1886 -0.31127,0.3082 -0.5966,1.1077 -0.72885,1.9819 -0.13225,0.8741 -0.10873,1.5818 -0.0974,2.1263 z m -36.23823,-1.5911 c 0.94959,-0.045 2.08958,0.1268 3.44531,0.5175 1.34274,0.3871 1.38876,0.5959 0.30078,1.377 -0.64537,0.4633 -1.08668,0.5481 -2.02539,0.3906 -2.09066,-0.3507 -4.34961,-1.0045 -4.34961,-1.2578 0,-0.1344 0.50293,-0.4535 1.11914,-0.7109 0.43858,-0.1833 0.94002,-0.2894 1.50977,-0.3164 z m -4.84961,1.9609 3.07227,0.7773 c 1.68953,0.4272 3.13503,0.7754 3.21093,0.7754 0.41001,0 0.0217,0.6452 -0.80859,1.3438 -1.10154,0.9269 -1.53949,0.896 -6.10547,-0.4141 l -2.85156,-0.8183 1.74219,-0.8321 z m -4.54687,2.9375 c 0.52008,-0.013 1.2941,0.1982 2.86718,0.6211 0.9075,0.244 2.38218,0.6056 3.27735,0.8027 0.89518,0.1972 1.66629,0.4897 1.71289,0.6504 0.15616,0.5389 -0.76338,1.8641 -1.41016,2.0332 -0.79277,0.2073 -4.06688,-0.3376 -5.08008,-0.8457 -0.4125,-0.2068 -1.52586,-0.5473 -2.47461,-0.7578 -0.94875,-0.2105 -1.7246,-0.496 -1.7246,-0.6348 0,-0.1387 0.10085,-0.2539 0.2246,-0.2539 0.12375,-4e-4 0.69176,-0.3998 1.26368,-0.8886 0.55672,-0.4758 0.82366,-0.7137 1.34375,-0.7266 z m -3.67774,3.3047 c 1.75676,0.4628 3.8753,1.0232 5.10488,1.3689 1.22958,0.3456 1.38913,0.5624 2.21543,0.676 1.99592,0.2745 2.28195,0.471 1.74805,1.2012 -0.23344,0.3192 -0.42383,0.8075 -0.42383,1.0859 0,0.5535 -0.35489,0.5167 -4.94922,-0.5215 -1.98696,-0.449 -5.55078,-2.0451 -5.55078,-2.4863 0,-0.1123 0.33599,-0.4969 0.7461,-0.8535 0.46103,-0.4009 0.72759,-0.5338 1.10937,-0.4707 z m 2.27344,6.6758 c 0.0331,-0.01 0.0705,-0 0.11133,0.01 0.22567,0.068 1.35408,0.2739 2.50781,0.459 1.44757,0.2322 2.12505,0.4787 2.18555,0.7929 0.0482,0.2505 0.0186,0.5224 -0.0645,0.6055 -0.0831,0.083 -0.2245,0.8863 -0.3164,1.7852 -0.44272,4.3328 -3.20805,15.3969 -4.90625,19.6347 l -0.59961,1.5 -1.56641,-0.068 c -2.7861494,-0.1231 -5.4543794,-1.9607 -5.1953094,-3.5781 2.56135,-6.542 7.6988994,-11.6951 7.5976594,-18.8145 -0.0372,-1.6974 0.014,-2.2725 0.24609,-2.3242 z m 21.37109,0.3359 c 0.79537,0 0.79017,1.359 -0.0137,3.5996 -1.15115,3.2086 -2.20486,4.9319 -4.25391,6.957 -1.04969,1.0375 -3.32412,2.043 -4.62109,2.043 -1.52832,0 -1.28382,-0.761 0.37891,-1.1797 2.77219,-0.698 4.06184,-1.6156 6.00781,-4.2754 0.95077,-1.2995 1.85528,-3.9427 1.83008,-5.3457 -0.0276,-1.5278 0.0743,-1.7988 0.67187,-1.7988 z m -3.11328,0.2988 c 0.66128,0 0.71303,0.116 0.70703,1.5762 -0.0152,3.6317 -3.57102,7.9897 -6.54101,8.0176 -1.01319,0.01 -0.22656,-2.8884 -0.22656,-2.8884 1.061,-0.3387 2.79392,-0.9211 3.36495,-2.0137 0.22333,-0.4273 0.65629,-1.4416 0.85101,-2.5817 0.40539,-2.3736 0.84839,-2.11 1.84458,-2.11 z m -3.99023,0.3262 c 0.46497,0.013 0.5039,0.1884 0.5039,0.7852 0,1.2252 -2.05097,3.8377 -2.58984,3.2988 -0.0724,-0.072 -0.0262,-0.9921 0.10352,-2.0449 l 0.23632,-1.9141 1.125,-0.094 c 0.26413,-0.022 0.46611,-0.036 0.6211,-0.031 z m -5.83594,0.029 c 0.1534,0 0.34958,0.027 0.60547,0.064 0.59604,0.087 1.18484,0.1639 1.30859,0.1699 0.27846,0.014 0.30008,1.6355 0.0254,1.9102 -0.29789,0.2979 -2.79882,0.242 -2.79882,-0.062 0,-0.1444 0.0842,-0.6927 0.18945,-1.2188 0.13549,-0.6775 0.20973,-0.8712 0.66992,-0.8632 z m -1.32617,4.1191 1.50781,0.088 c 1.44639,0.085 1.50982,0.1251 1.54492,0.9883 0.0685,1.6832 -0.19508,2.4827 -0.8789,2.666 -0.93338,0.2503 -2.54797,0.2255 -2.69922,-0.041 -0.0702,-0.1237 0.0194,-1.0067 0.19922,-1.9628 z m -0.30664,5.834 c 0.23129,-0.011 0.52933,-0.01 0.91797,0 0.90903,0.022 1.63834,0.105 1.61914,0.1875 -0.0193,0.082 -0.16429,0.8603 -0.32227,1.7266 l -0.28711,1.5742 -1.30273,0 c -1.92582,0 -2.25297,-0.1925 -1.95313,-1.1484 0.13836,-0.4411 0.32748,-1.1559 0.42188,-1.5899 0.12099,-0.5565 0.21238,-0.722 0.90625,-0.7539 z m -0.58399,5.293 c 1.76462,0 1.77512,0.012 1.44532,1.7246 -0.16153,0.8389 -0.73273,1.1543 -2.59571,1.4336 l -1.45703,0.2188 0.2207,-1.0137 c 0.49556,-2.2776 0.58264,-2.3633 2.38672,-2.3633 z m -1.10742,5.2031 c 1.19597,-0.04 1.21499,0.3641 0.44336,1.9141 -0.38513,0.7736 -0.7991,1.0613 -2.05273,1.4258 -0.86336,0.2509 -1.65241,0.457 -1.75391,0.457 -0.27421,0 0.13958,-1.5215 0.69336,-2.5508 0.26634,-0.495 0.49431,-0.9336 0.50781,-0.9746 0.0135,-0.041 0.72344,-0.1436 1.57617,-0.2285 0.21999,-0.022 0.41509,-0.037 0.58594,-0.043 z"
       id="path3000"
       inkscape:connector-curvature="0"
       sodipodi:nodetypes="sccsssczzccsccssccszccccscccsssccccczzccsccssccccsccssccssscsscsssssscccsccccccsccscccsssccscccccccsccsccsscssscccccsscccccsccscccccscsscsscssssscscccscsccccccssssccsscssscccscccccccsccccscsccscscssczzzzzcsscssscccccccccccsszcssszcccssccccscccsccscscccccccscsczcscccscccsscccccccsccscsscsccscccccsscscccsscccccsscsccsscscssccsccsccccscccscsccccc" />
  </g>
</svg>
